<svg version="1.1" xmlns="http://www.w3.org/2000/svg" viewBox="0 0 171.2109375 150.1015625" width="513.6328125" height="450.3046875">
  <!-- svg-source:excalidraw -->
  
  <defs>
    <style>
      @font-face {
        font-family: "Virgil";
        src: url("https://excalidraw.com/Virgil.woff2");
      }
      @font-face {
        font-family: "Cascadia";
        src: url("https://excalidraw.com/Cascadia.woff2");
      }
    </style>
  </defs>
  <g stroke-linecap="round" transform="translate(50.65234375 61.02734375) rotate(0 15.3359375 14.515625)"><path d="M18.38 -0.65 C21.61 -0.13, 25.63 3.28, 27.67 5.75 C29.72 8.22, 30.63 11.24, 30.66 14.17 C30.68 17.09, 29.87 20.77, 27.81 23.3 C25.76 25.83, 21.62 28.83, 18.32 29.34 C15.03 29.86, 11.06 27.97, 8.03 26.36 C5 24.76, 1.2 22.44, 0.15 19.71 C-0.91 16.98, 0.6 12.99, 1.68 10.01 C2.76 7.03, 3.61 3.49, 6.62 1.84 C9.64 0.19, 17.56 0.15, 19.78 0.09 C22 0.03, 20.04 1.13, 19.97 1.47 M20.78 0.77 C23.71 1.59, 25.38 5.16, 26.77 7.5 C28.15 9.84, 29.21 12.1, 29.09 14.82 C28.97 17.54, 28.28 21.55, 26.04 23.82 C23.81 26.1, 18.82 27.85, 15.69 28.48 C12.56 29.1, 9.62 29.38, 7.25 27.56 C4.89 25.74, 2.55 20.81, 1.51 17.56 C0.48 14.32, -0.28 11, 1.05 8.07 C2.37 5.14, 6.28 1.43, 9.46 -0.02 C12.65 -1.47, 18.57 -1.02, 20.14 -0.63 C21.72 -0.24, 19.27 2.04, 18.92 2.34" stroke="none" stroke-width="0" fill="#e94560"></path><path d="M17.05 -0.38 C20.33 -0.26, 24.89 1.77, 27.15 4.01 C29.4 6.26, 30.63 9.92, 30.59 13.09 C30.55 16.26, 28.82 20.43, 26.91 23.02 C25 25.61, 22.32 27.83, 19.12 28.6 C15.92 29.38, 10.65 29, 7.69 27.66 C4.72 26.31, 2.37 23.45, 1.32 20.52 C0.28 17.6, 0.45 13.1, 1.4 10.12 C2.35 7.15, 3.98 4.32, 7.04 2.67 C10.1 1.01, 17.3 0.3, 19.76 0.19 C22.22 0.09, 21.93 1.63, 21.81 2.04 M15.42 -0.13 C18.19 -0.09, 22.58 2.25, 24.87 4.26 C27.16 6.27, 28.65 9.14, 29.14 11.93 C29.63 14.72, 29.49 18.2, 27.81 21 C26.13 23.8, 22.25 27.45, 19.07 28.73 C15.89 30.02, 11.43 29.8, 8.73 28.71 C6.03 27.62, 4.32 25.3, 2.87 22.2 C1.42 19.09, -0.32 13.04, 0.02 10.08 C0.36 7.12, 2.14 6.05, 4.91 4.45 C7.68 2.86, 15.02 1.37, 16.63 0.51 C18.24 -0.35, 14.67 -0.99, 14.58 -0.72" stroke="#000000" stroke-width="1" fill="none"></path></g><g stroke-linecap="round" transform="translate(83.765625 10) rotate(0 15.3359375 14.515625)"><path d="M3.06 5.31 C3.06 5.31, 3.06 5.31, 3.06 5.31 M3.06 5.31 C3.06 5.31, 3.06 5.31, 3.06 5.31 M-0.11 12.91 C2.92 10.75, 6.45 7.96, 9.79 1.16 M0.3 13.37 C5.27 8.63, 8.76 4.77, 11.33 2.53 M0.66 16.9 C6.41 14.84, 12.34 7.25, 15 3.78 M2.09 19.72 C7.8 12.93, 13.41 7.19, 16.23 2.69 M3.24 22.58 C10.05 18.07, 14.31 13.02, 21.9 4.42 M4.31 22.14 C8.37 17.14, 12.62 11.08, 20.64 2.06 M5.47 24.66 C12.89 19.98, 17.44 11.21, 25.13 2.54 M5.06 26.47 C10.57 21.21, 14.48 16.78, 24.09 5.05 M10.86 30.23 C14.48 20.85, 24.73 13.47, 26.35 7.07 M10.29 27.71 C15.65 20.68, 22.15 13.89, 28.29 7.87 M12.63 29.45 C19.17 22.2, 27.35 15.23, 32.76 11.55 M13.72 30.07 C18.24 22.5, 24.95 16.57, 31.69 9.35 M18.54 32.11 C23.02 25.48, 30.16 19.42, 30.71 15.09 M17.32 30.94 C21.89 26.31, 26.32 20.42, 30.78 15.19 M4.07 24.28 C4.07 24.28, 4.07 24.28, 4.07 24.28 M4.07 24.28 C4.07 24.28, 4.07 24.28, 4.07 24.28 M13.14 29.02 C10.69 26.33, 8.75 23.39, -1.18 15.56 M14.84 29.21 C9.68 23.88, 5.3 20.13, 0.88 15.08 M19.58 27.81 C13.26 20.54, 8.41 16.4, 2.96 12.26 M20.88 27.65 C15.52 24.22, 10.15 18.22, 2.08 12.43 M25.41 24.66 C18.19 19.5, 14.59 15.17, 2.88 5.54 M23.99 24.81 C17.01 20.2, 10.33 14.59, 2.57 7.49 M24.69 22.31 C19.93 17.5, 18.03 11.7, 5.44 1.82 M26.43 22.23 C19.56 15.87, 11.38 8.86, 5.28 3.53 M29.63 19.85 C21.1 14.58, 15.19 9.75, 9.23 0.1 M28.38 19.15 C25.66 16.03, 21.48 12.37, 7.84 1.58 M31.63 18.57 C24.88 12.95, 21.53 5.93, 11.88 -0.33 M32.67 15.72 C23.88 9.38, 16.25 3.52, 11.61 -0.5 M32.25 10.15 C28.19 8.06, 24.88 5.76, 20.97 2.34 M31.79 10.37 C28.48 8.2, 25.72 5.25, 20.51 1.73" stroke="#16213e" stroke-width="0.5" fill="none"></path><path d="M10.54 1.21 C13.31 0.36, 17.63 0.92, 20.87 2.09 C24.1 3.26, 28.42 5.48, 29.96 8.25 C31.5 11.01, 31.13 15.66, 30.12 18.68 C29.11 21.7, 26.48 24.62, 23.92 26.36 C21.35 28.09, 18.09 29.48, 14.72 29.09 C11.36 28.69, 6.18 26.04, 3.73 23.99 C1.28 21.94, 0.17 19.85, 0.03 16.77 C-0.11 13.69, 0.68 8.15, 2.88 5.51 C5.09 2.88, 11.16 1.84, 13.27 0.96 C15.37 0.08, 15.37 0.01, 15.52 0.25 M17.85 1.14 C20.84 1.32, 24.79 1.65, 27.08 3.6 C29.36 5.55, 31.78 9.45, 31.56 12.84 C31.34 16.24, 28.2 21.36, 25.75 23.94 C23.31 26.52, 19.97 27.59, 16.9 28.32 C13.83 29.06, 9.73 29.59, 7.32 28.33 C4.91 27.08, 3.57 23.99, 2.45 20.79 C1.34 17.59, -0.23 12.22, 0.64 9.12 C1.5 6.01, 4.97 3.6, 7.63 2.17 C10.3 0.73, 15.14 0.92, 16.62 0.51 C18.09 0.09, 16.08 -0.3, 16.47 -0.34" stroke="#000000" stroke-width="1" fill="none"></path></g><g stroke-linecap="round" transform="translate(93.0859375 105.62109375) rotate(0 15.3359375 14.515625)"><path d="M2.34 6.01 C2.34 6.01, 2.34 6.01, 2.34 6.01 M2.34 6.01 C2.34 6.01, 2.34 6.01, 2.34 6.01 M-0.21 13.97 C2.08 9.83, 6.05 6.93, 12.37 2.21 M-0.27 15.26 C2.37 11.48, 5.54 6.63, 12.26 1.66 M1.09 19.73 C4.79 13.28, 9.3 12.74, 18.12 0.48 M1.96 19.67 C7.44 11.84, 12.54 6.61, 16.15 0.82 M2.47 23.18 C9.14 15.31, 18.8 8.1, 21.53 1.49 M3.95 23.03 C7.95 18.36, 13.35 12.81, 22.01 1.22 M4.09 27.3 C9.45 21.79, 15.48 16.18, 26.83 4.18 M6.09 27.3 C12.62 18.4, 18.79 11.57, 24.03 3.94 M10.32 26.63 C14.27 21.35, 19.13 18.14, 27 8.27 M10.13 29.02 C16.28 21.15, 21.54 14.47, 27.45 7.79 M15.35 28.63 C18.11 21.29, 25.15 14.87, 30.68 10.27 M14.5 30.06 C18.11 24.41, 20.5 21.63, 31.23 10.55 M18.93 27.42 C22.48 24.99, 24.76 21.52, 30.6 13.65 M19.58 28.39 C23.2 25.04, 26.77 20.59, 31.87 16.04 M4.06 24.29 C4.06 24.29, 4.06 24.29, 4.06 24.29 M4.06 24.29 C4.06 24.29, 4.06 24.29, 4.06 24.29 M15.19 27.59 C11.48 23.51, 6.07 19.24, 0.71 16.02 M13.89 28.76 C10.42 25.54, 7.57 23.3, -0.48 15.71 M19.17 28.01 C14.03 23.59, 8.77 18.14, -0.79 9.6 M19.41 26.01 C13.97 22.13, 6.96 15.6, 0.08 10.46 M24.4 26.97 C20.02 21.24, 15.39 17.29, 0.13 4.78 M24.58 25.84 C16.94 19.88, 11.29 15.52, 2.99 6.94 M25.3 22.43 C18.82 14.17, 10.03 8.16, 6.07 2.14 M26.51 22.47 C19.16 15.99, 11.62 9.1, 4.69 3.71 M28.73 20.59 C20.82 12.23, 14.64 6.08, 9.11 2.69 M29.39 19.87 C23.37 14.76, 16.99 9.22, 9.03 1.11 M32.05 15.06 C22.61 10.27, 16.89 1.58, 10.75 -0.42 M32.31 16.29 C28.57 12.15, 23.3 9.52, 12.79 0.33 M30.58 10.61 C27.37 6.82, 26.73 7.31, 20.09 0.59 M30.39 9.65 C27.56 7.14, 24.12 5.45, 19.7 1.02" stroke="#16213e" stroke-width="0.5" fill="none"></path><path d="M21.41 1.52 C24.06 2.4, 26.92 4.95, 28.4 7.82 C29.87 10.69, 31.11 15.67, 30.24 18.75 C29.38 21.83, 26.07 24.66, 23.2 26.3 C20.34 27.94, 16.24 28.92, 13.05 28.59 C9.87 28.26, 6.4 26.42, 4.11 24.33 C1.82 22.25, -0.42 19.14, -0.7 16.08 C-0.99 13.02, 0.38 8.57, 2.39 5.96 C4.4 3.35, 8.02 1.19, 11.36 0.41 C14.7 -0.37, 20.44 0.86, 22.44 1.29 C24.43 1.72, 23.41 2.56, 23.34 2.97 M7.64 2.77 C10.27 0.8, 14.28 -1.13, 17.66 -0.79 C21.04 -0.44, 25.89 2.01, 27.9 4.82 C29.92 7.63, 29.97 12.61, 29.76 16.06 C29.56 19.51, 28.66 23.13, 26.65 25.5 C24.64 27.88, 20.99 30.28, 17.7 30.34 C14.42 30.39, 10.01 27.75, 6.93 25.85 C3.86 23.94, 0.03 21.55, -0.76 18.9 C-1.55 16.24, 0.78 12.95, 2.18 9.91 C3.57 6.88, 6.37 1.8, 7.6 0.66 C8.83 -0.49, 9.22 2.57, 9.53 3.04" stroke="#000000" stroke-width="1" fill="none"></path></g><g stroke-linecap="round"><g transform="translate(91.9140625 37.25390625) rotate(0 -8.260566094894898 13.553034412120468)"><path d="M0.25 1.03 C-2.52 5.39, -13.47 22.22, -16.17 26.57 M-1.08 0.53 C-3.98 4.48, -14.24 20.55, -16.77 24.69" stroke="#000000" stroke-width="1" fill="none"></path></g></g><g stroke-linecap="round"><g transform="translate(75.71875 86.5234375) rotate(0 12.002418266399758 12.381434257985092)"><path d="M-0.76 -0.8 C2.94 3.35, 18.39 19.73, 22.41 23.94 M1.04 1.4 C5.11 5.84, 21.15 22.04, 24.77 25.56" stroke="#000000" stroke-width="1" fill="none"></path></g></g><g stroke-linecap="round" transform="translate(130.5390625 49.8046875) rotate(0 15.3359375 14.515625)"><path d="M4.46 5.2 C4.46 5.2, 4.46 5.2, 4.46 5.2 M4.46 5.2 C4.46 5.2, 4.46 5.2, 4.46 5.2 M0.79 15.01 C2.57 12.27, 6.07 7.06, 12.47 2.11 M1.43 15.12 C4.9 10.86, 8.16 8.43, 13.57 1.97 M0.64 20.13 C9.1 12.63, 12.6 6.17, 18.45 1.84 M2.04 19.5 C5.78 15.06, 11.21 9.51, 17.03 1.98 M5.14 23.77 C8.85 17.44, 14.45 13.57, 19.43 3.62 M2.69 24.73 C6.9 20.16, 11.53 15.18, 21.18 3.54 M6.58 28.07 C13.9 18.26, 19.92 8.17, 26.74 4.54 M7.32 27.56 C9.98 21.64, 13.62 17.48, 25.48 3.84 M10.9 28.3 C17.31 20.81, 21.27 11.97, 28.48 9.66 M9.76 28.69 C14.13 25.34, 18.82 20.23, 29.52 6.8 M13.67 30.21 C18.29 25.69, 24.82 18.51, 32.18 9.89 M13.55 31.54 C18.92 25.51, 23.66 19.73, 31.52 10.19 M20.62 27.21 C24.43 23.83, 28.4 22.2, 31.29 15.6 M21.67 28.3 C24.65 24.34, 28.8 20.45, 32.22 16.3 M2.8 24.21 C2.8 24.21, 2.8 24.21, 2.8 24.21 M2.8 24.21 C2.8 24.21, 2.8 24.21, 2.8 24.21 M12.08 26.38 C10.36 25.95, 6.42 21.53, 1.4 18.41 M13.04 27.25 C8.89 24.8, 5.41 21.27, 2.03 18.21 M18.01 28.26 C14.17 20.46, 9.72 19.31, 1.59 14.54 M18.72 26.63 C12.09 21.69, 5.88 17.55, 1.05 13.14 M23.55 25.99 C16.53 21.46, 12.53 13.67, 2.98 8.98 M23.72 26.61 C16.87 20.69, 12.85 17.6, 3.83 7.98 M24.2 24.82 C18.08 17.28, 15.53 13.69, 6.02 3.35 M25.37 23.06 C21.07 19.36, 14.78 13.62, 4.47 4.7 M29.79 18.78 C23.78 16.93, 18.51 12.96, 8.45 4.9 M28.92 19.73 C22.58 14.87, 16.45 10.87, 9.17 4.16 M30.83 17.47 C27.46 14.38, 22.95 11.82, 12.77 3.25 M31.77 16.63 C28.08 13.76, 23.16 11.39, 13.6 2.09 M31.56 11.79 C27.94 8.13, 22.12 2.71, 16.43 0.06 M30.37 11.12 C27.15 8.29, 22.85 4.99, 16.76 -1.8" stroke="#16213e" stroke-width="0.5" fill="none"></path><path d="M14.43 1.01 C17.38 0.56, 21.35 0.98, 23.85 2.5 C26.35 4.02, 28.39 7.31, 29.44 10.12 C30.49 12.92, 31.49 16.33, 30.13 19.31 C28.78 22.29, 24.51 26.31, 21.32 27.98 C18.14 29.64, 14.14 29.96, 11.03 29.31 C7.92 28.66, 4.32 26.71, 2.65 24.08 C0.97 21.45, 0.65 16.73, 0.98 13.55 C1.31 10.37, 2.25 7.22, 4.63 5 C7.01 2.77, 13.09 0.93, 15.27 0.2 C17.46 -0.53, 17.84 0.43, 17.77 0.61 M17.8 -0.16 C20.99 0.44, 24.49 3.49, 26.44 5.95 C28.39 8.4, 29.58 11.58, 29.5 14.55 C29.42 17.52, 27.78 21.49, 25.97 23.76 C24.16 26.02, 21.59 27.56, 18.65 28.15 C15.72 28.74, 11.14 28.94, 8.35 27.28 C5.55 25.63, 2.96 21, 1.88 18.22 C0.8 15.43, 0.63 13.39, 1.87 10.57 C3.11 7.74, 6.52 3.05, 9.33 1.27 C12.14 -0.51, 17.37 -0.16, 18.73 -0.1 C20.08 -0.04, 17.47 1.38, 17.48 1.65" stroke="#000000" stroke-width="1" fill="none"></path></g><g stroke-linecap="round"><g transform="translate(111.7734375 32.0703125) rotate(0 10.60374808385967 11.099927865713838)"><path d="M-0.9 -0.52 C2.63 3.41, 18.37 18.82, 22.1 22.72 M0.84 1.82 C4.08 5.44, 17.05 17.59, 20.87 20.74" stroke="#000000" stroke-width="1" fill="none"></path></g></g><g stroke-linecap="round" transform="translate(10 111.0703125) rotate(0 15.3359375 14.515625)"><path d="M1.98 7.02 C1.98 7.02, 1.98 7.02, 1.98 7.02 M1.98 7.02 C1.98 7.02, 1.98 7.02, 1.98 7.02 M2.15 13.95 C2.85 11.16, 7.3 7.54, 11.59 2.52 M0.89 14.94 C3.39 10.44, 6.79 6.91, 10.92 2.28 M2.73 16.63 C7.09 13.2, 13.1 6.88, 18.99 -0.01 M3.47 17.54 C6.23 13.67, 10.9 8.87, 16.6 0.79 M4.54 22.09 C11.45 15.86, 16.36 5.48, 22.37 0.72 M5.12 22.94 C9.6 16.84, 14.05 10.35, 22.26 2.84 M7.44 26.15 C14.85 19.62, 21.1 11.75, 26.92 4.54 M6.71 25.61 C11.99 20.28, 18.1 14.62, 25.61 4.85 M8.51 27.53 C16.08 20.67, 19.31 15.17, 30.81 8.47 M11.33 28.39 C13.8 23.11, 19.18 18.7, 27.91 7.32 M15.64 29.82 C16.82 23.98, 23.47 22.08, 30.39 8.71 M14.76 28.27 C20.76 21.02, 27.08 13.49, 32.41 8.43 M19.8 29.99 C24.32 25.66, 27.98 19.48, 33.28 12.99 M19.15 30.7 C23.28 25.6, 25.6 21.86, 32.67 14.17 M5.13 26.11 C5.13 26.11, 5.13 26.11, 5.13 26.11 M5.13 26.11 C5.13 26.11, 5.13 26.11, 5.13 26.11 M11.72 27.5 C9.41 23.86, 4.86 21.61, -0.07 16.36 M13.66 27.78 C7.92 24.57, 4.61 19.67, 0.25 17.89 M15.33 26.53 C14.36 21.9, 7.76 19.83, 2.46 15.1 M16.92 25.57 C12.66 22.27, 9.78 17.96, 3.46 13.12 M22.02 26.52 C17.04 23.26, 15.13 18.78, 4.69 9.22 M22.32 24.68 C17.18 19.03, 10.75 14.27, 3.48 8.52 M25.24 22.36 C17.62 17.91, 12.1 11.62, 4.59 3.31 M26.65 23.17 C21.05 19.94, 16.27 13.93, 5.14 4.01 M28 20.06 C23.12 14.15, 15.71 8.7, 6.08 2.63 M29.27 21.07 C21.71 14.25, 17.05 9.97, 8.32 1.68 M33.22 17.31 C23.12 12.24, 16.62 4.59, 10.24 0.72 M31.77 16.96 C26.59 11.84, 19.4 7.25, 12.22 0.1 M32.69 13.85 C29.05 11.46, 27.44 6.59, 16.65 -0.32 M32.38 14.05 C27.07 7.08, 21.14 1.86, 16.14 0.05" stroke="#16213e" stroke-width="0.5" fill="none"></path><path d="M19.99 0.27 C23.21 0.97, 27.37 4.23, 29.23 6.95 C31.08 9.67, 31.65 13.55, 31.12 16.6 C30.59 19.64, 28.6 23.31, 26.03 25.23 C23.47 27.15, 19.25 27.99, 15.75 28.13 C12.26 28.27, 7.64 28.02, 5.08 26.07 C2.52 24.12, 0.88 19.64, 0.39 16.43 C-0.1 13.23, 0.48 9.31, 2.14 6.83 C3.8 4.35, 7.32 2.7, 10.33 1.56 C13.35 0.42, 18.54 0.1, 20.21 -0.01 C21.89 -0.12, 20.54 0.59, 20.4 0.89 M19.68 0.05 C22.76 0.41, 26.7 3.4, 28.28 5.78 C29.85 8.16, 29.5 10.91, 29.12 14.31 C28.74 17.71, 28.3 23.6, 26 26.19 C23.71 28.78, 18.56 29.94, 15.35 29.83 C12.13 29.72, 9.24 27.43, 6.72 25.52 C4.21 23.6, 0.9 20.98, 0.24 18.34 C-0.41 15.71, 1.3 12.34, 2.79 9.71 C4.28 7.07, 6.68 4.13, 9.19 2.55 C11.7 0.96, 16.35 0.54, 17.85 0.21 C19.36 -0.12, 18 0.44, 18.2 0.56" stroke="#000000" stroke-width="1" fill="none"></path></g><g stroke-linecap="round"><g transform="translate(54.75390625 90.90234375) rotate(0 -11.268967401520342 13.688000857085001)"><path d="M0.93 -1.2 C-2.79 3.49, -18.51 23.82, -22.47 28.58 M-0.04 0.79 C-3.91 5.05, -19.49 22.01, -23.47 26.57" stroke="#000000" stroke-width="1" fill="none"></path></g></g></svg>